# Blender 5.1.0
# www.blender.org
mtllib testContainer.mtl
o Cube
v 1.000000 1.000000 -1.000000
v 1.000000 0.000000 -1.000000
v 1.000000 1.000000 1.000000
v 1.000000 0.000000 1.000000
v -1.000000 1.000000 -1.000000
v -1.000000 0.000000 -1.000000
v -1.000000 1.000000 1.000000
v -1.000000 0.000000 1.000000
v 0.798192 0.140133 0.798192
v 0.798192 0.140133 -0.798192
v -0.798192 0.140133 -0.798192
v -0.798192 0.140133 0.798192
v -0.798192 1.000000 0.798192
v -0.798192 1.000000 -0.798192
v 0.798192 1.000000 -0.798192
v 0.798192 1.000000 0.798192
vn -0.0000 -0.0000 -1.0000
vn -0.0000 -0.0000 1.0000
vn -1.0000 -0.0000 -0.0000
vn -0.0000 -1.0000 -0.0000
vn 1.0000 -0.0000 -0.0000
vn -0.0000 1.0000 -0.0000
vt 0.625000 1.000000
vt 0.625000 0.750000
vt 0.375000 0.750000
vt 0.375000 1.000000
vt 0.375000 0.000000
vt 0.625000 0.000000
vt 0.625000 0.250000
vt 0.375000 0.250000
vt 0.125000 0.500000
vt 0.375000 0.500000
vt 0.125000 0.750000
vt 0.625000 0.500000
s 0
usemtl Material
f 13/1/1 16/2/1 9/2/1 12/1/1
f 4/3/2 3/2/2 7/1/2 8/4/2
f 8/5/3 7/6/3 5/7/3 6/8/3
f 6/9/4 2/10/4 4/3/4 8/11/4
f 2/10/5 1/12/5 3/2/5 4/3/5
f 6/8/1 5/7/1 1/12/1 2/10/1
f 16/2/3 15/12/3 10/12/3 9/2/3
f 10/12/6 11/7/6 12/6/6 9/2/6
f 15/12/2 14/7/2 11/7/2 10/12/2
f 14/7/5 13/6/5 12/6/5 11/7/5
f 7/1/6 3/2/6 16/2/6 13/1/6
f 1/12/6 5/7/6 14/7/6 15/12/6
f 3/2/6 1/12/6 15/12/6 16/2/6
f 5/7/6 7/6/6 13/6/6 14/7/6
